<svg id="visual" viewBox="0 0 900 600" width="900" height="600" xmlns="http://www.w3.org/2000/svg" xmlns:xlink="http://www.w3.org/1999/xlink" version="1.1"><rect x="0" y="0" width="900" height="600" fill="#FFFFFF"></rect><path d="M0 364L16.7 365.2C33.3 366.3 66.7 368.7 100 369.3C133.3 370 166.7 369 200 368.3C233.3 367.7 266.7 367.3 300 356.7C333.3 346 366.7 325 400 329.7C433.3 334.3 466.7 364.7 500 365.5C533.3 366.3 566.7 337.7 600 332C633.3 326.3 666.7 343.7 700 355.8C733.3 368 766.7 375 800 372.2C833.3 369.3 866.7 356.7 883.3 350.3L900 344L900 601L883.3 601C866.7 601 833.3 601 800 601C766.7 601 733.3 601 700 601C666.7 601 633.3 601 600 601C566.7 601 533.3 601 500 601C466.7 601 433.3 601 400 601C366.7 601 333.3 601 300 601C266.7 601 233.3 601 200 601C166.7 601 133.3 601 100 601C66.7 601 33.3 601 16.7 601L0 601Z" fill="#009688"></path><path d="M0 404L16.7 403.3C33.3 402.7 66.7 401.3 100 395.2C133.3 389 166.7 378 200 376.5C233.3 375 266.7 383 300 391.5C333.3 400 366.7 409 400 419C433.3 429 466.7 440 500 437.3C533.3 434.7 566.7 418.3 600 413.8C633.3 409.3 666.7 416.7 700 421.8C733.3 427 766.7 430 800 433.2C833.3 436.3 866.7 439.7 883.3 441.3L900 443L900 601L883.3 601C866.7 601 833.3 601 800 601C766.7 601 733.3 601 700 601C666.7 601 633.3 601 600 601C566.7 601 533.3 601 500 601C466.7 601 433.3 601 400 601C366.7 601 333.3 601 300 601C266.7 601 233.3 601 200 601C166.7 601 133.3 601 100 601C66.7 601 33.3 601 16.7 601L0 601Z" fill="#006987"></path><path d="M0 507L16.7 499.8C33.3 492.7 66.7 478.3 100 476.2C133.3 474 166.7 484 200 487.8C233.3 491.7 266.7 489.3 300 479C333.3 468.7 366.7 450.3 400 450C433.3 449.7 466.7 467.3 500 477C533.3 486.7 566.7 488.3 600 484.2C633.3 480 666.7 470 700 460.3C733.3 450.7 766.7 441.3 800 447.7C833.3 454 866.7 476 883.3 487L900 498L900 601L883.3 601C866.7 601 833.3 601 800 601C766.7 601 733.3 601 700 601C666.7 601 633.3 601 600 601C566.7 601 533.3 601 500 601C466.7 601 433.3 601 400 601C366.7 601 333.3 601 300 601C266.7 601 233.3 601 200 601C166.7 601 133.3 601 100 601C66.7 601 33.3 601 16.7 601L0 601Z" fill="#003966"></path><path d="M0 537L16.7 541C33.3 545 66.7 553 100 552.5C133.3 552 166.7 543 200 536.3C233.3 529.7 266.7 525.3 300 518.5C333.3 511.7 366.7 502.3 400 502.5C433.3 502.7 466.7 512.3 500 515.8C533.3 519.3 566.7 516.7 600 515.8C633.3 515 666.7 516 700 514.5C733.3 513 766.7 509 800 509.8C833.3 510.7 866.7 516.3 883.3 519.2L900 522L900 601L883.3 601C866.7 601 833.3 601 800 601C766.7 601 733.3 601 700 601C666.7 601 633.3 601 600 601C566.7 601 533.3 601 500 601C466.7 601 433.3 601 400 601C366.7 601 333.3 601 300 601C266.7 601 233.3 601 200 601C166.7 601 133.3 601 100 601C66.7 601 33.3 601 16.7 601L0 601Z" fill="#00093b"></path></svg>